<svg height="2062" width="720" xmlns="http://www.w3.org/2000/svg">
<rect height="2062" fill="#555" width="720"></rect>
<text fill="#7f7" font-family="Courier New" font-size="12" xml:space="preserve">
<tspan x="10" y="26">10 megabytes installed</tspan>
<tspan x="10" y="42"></tspan>
<tspan x="10" y="58">node_modules</tspan>
<tspan x="10" y="74">└─┬ gulp-rev-easy@1.2.3 </tspan>
<tspan x="10" y="90">  ├─┬ cheerio@0.22.0 </tspan>
<tspan x="10" y="106">  │ ├─┬ css-select@1.2.0 </tspan>
<tspan x="10" y="122">  │ │ ├── boolbase@1.0.0 </tspan>
<tspan x="10" y="138">  │ │ ├── css-what@2.1.0 </tspan>
<tspan x="10" y="154">  │ │ ├── domutils@1.5.1 </tspan>
<tspan x="10" y="170">  │ │ └── nth-check@1.0.1 </tspan>
<tspan x="10" y="186">  │ ├─┬ dom-serializer@0.1.0 </tspan>
<tspan x="10" y="202">  │ │ └── domelementtype@1.1.3 </tspan>
<tspan x="10" y="218">  │ ├── entities@1.1.1 </tspan>
<tspan x="10" y="234">  │ ├─┬ htmlparser2@3.9.2 </tspan>
<tspan x="10" y="250">  │ │ ├── domelementtype@1.3.0 </tspan>
<tspan x="10" y="266">  │ │ ├── domhandler@2.3.0 </tspan>
<tspan x="10" y="282">  │ │ └── inherits@2.0.3 </tspan>
<tspan x="10" y="298">  │ ├── lodash.assignin@4.2.0 </tspan>
<tspan x="10" y="314">  │ ├── lodash.bind@4.2.1 </tspan>
<tspan x="10" y="330">  │ ├── lodash.defaults@4.2.0 </tspan>
<tspan x="10" y="346">  │ ├── lodash.filter@4.6.0 </tspan>
<tspan x="10" y="362">  │ ├── lodash.flatten@4.4.0 </tspan>
<tspan x="10" y="378">  │ ├── lodash.foreach@4.5.0 </tspan>
<tspan x="10" y="394">  │ ├── lodash.map@4.6.0 </tspan>
<tspan x="10" y="410">  │ ├── lodash.merge@4.6.0 </tspan>
<tspan x="10" y="426">  │ ├── lodash.pick@4.4.0 </tspan>
<tspan x="10" y="442">  │ ├── lodash.reduce@4.6.0 </tspan>
<tspan x="10" y="458">  │ ├── lodash.reject@4.6.0 </tspan>
<tspan x="10" y="474">  │ └── lodash.some@4.6.0 </tspan>
<tspan x="10" y="490">  ├─┬ dateformat@1.0.12 </tspan>
<tspan x="10" y="506">  │ ├── get-stdin@4.0.1 </tspan>
<tspan x="10" y="522">  │ └─┬ meow@3.7.0 </tspan>
<tspan x="10" y="538">  │   ├─┬ camelcase-keys@2.1.0 </tspan>
<tspan x="10" y="554">  │   │ └── camelcase@2.1.1 </tspan>
<tspan x="10" y="570">  │   ├── decamelize@1.2.0 </tspan>
<tspan x="10" y="586">  │   ├─┬ loud-rejection@1.6.0 </tspan>
<tspan x="10" y="602">  │   │ ├─┬ currently-unhandled@0.4.1 </tspan>
<tspan x="10" y="618">  │   │ │ └── array-find-index@1.0.2 </tspan>
<tspan x="10" y="634">  │   │ └── signal-exit@3.0.2 </tspan>
<tspan x="10" y="650">  │   ├── map-obj@1.0.1 </tspan>
<tspan x="10" y="666">  │   ├─┬ normalize-package-data@2.3.6 </tspan>
<tspan x="10" y="682">  │   │ ├── hosted-git-info@2.4.2 </tspan>
<tspan x="10" y="698">  │   │ ├─┬ is-builtin-module@1.0.0 </tspan>
<tspan x="10" y="714">  │   │ │ └── builtin-modules@1.1.1 </tspan>
<tspan x="10" y="730">  │   │ ├── semver@5.3.0 </tspan>
<tspan x="10" y="746">  │   │ └─┬ validate-npm-package-license@3.0.1 </tspan>
<tspan x="10" y="762">  │   │   ├─┬ spdx-correct@1.0.2 </tspan>
<tspan x="10" y="778">  │   │   │ └── spdx-license-ids@1.2.2 </tspan>
<tspan x="10" y="794">  │   │   └── spdx-expression-parse@1.0.4 </tspan>
<tspan x="10" y="810">  │   ├── object-assign@4.1.1 </tspan>
<tspan x="10" y="826">  │   ├─┬ read-pkg-up@1.0.1 </tspan>
<tspan x="10" y="842">  │   │ ├─┬ find-up@1.1.2 </tspan>
<tspan x="10" y="858">  │   │ │ ├── path-exists@2.1.0 </tspan>
<tspan x="10" y="874">  │   │ │ └─┬ pinkie-promise@2.0.1 </tspan>
<tspan x="10" y="890">  │   │ │   └── pinkie@2.0.4 </tspan>
<tspan x="10" y="906">  │   │ └─┬ read-pkg@1.1.0 </tspan>
<tspan x="10" y="922">  │   │   ├─┬ load-json-file@1.1.0 </tspan>
<tspan x="10" y="938">  │   │   │ ├── graceful-fs@4.1.11 </tspan>
<tspan x="10" y="954">  │   │   │ ├─┬ parse-json@2.2.0 </tspan>
<tspan x="10" y="970">  │   │   │ │ └─┬ error-ex@1.3.1 </tspan>
<tspan x="10" y="986">  │   │   │ │   └── is-arrayish@0.2.1 </tspan>
<tspan x="10" y="1002">  │   │   │ ├── pify@2.3.0 </tspan>
<tspan x="10" y="1018">  │   │   │ └─┬ strip-bom@2.0.0 </tspan>
<tspan x="10" y="1034">  │   │   │   └── is-utf8@0.2.1 </tspan>
<tspan x="10" y="1050">  │   │   └── path-type@1.1.0 </tspan>
<tspan x="10" y="1066">  │   ├─┬ redent@1.0.0 </tspan>
<tspan x="10" y="1082">  │   │ ├─┬ indent-string@2.1.0 </tspan>
<tspan x="10" y="1098">  │   │ │ └─┬ repeating@2.0.1 </tspan>
<tspan x="10" y="1114">  │   │ │   └─┬ is-finite@1.0.2 </tspan>
<tspan x="10" y="1130">  │   │ │     └── number-is-nan@1.0.1 </tspan>
<tspan x="10" y="1146">  │   │ └── strip-indent@1.0.1 </tspan>
<tspan x="10" y="1162">  │   └── trim-newlines@1.0.0 </tspan>
<tspan x="10" y="1178">  ├─┬ gulp-util@3.0.8 </tspan>
<tspan x="10" y="1194">  │ ├── array-differ@1.0.0 </tspan>
<tspan x="10" y="1210">  │ ├── array-uniq@1.0.3 </tspan>
<tspan x="10" y="1226">  │ ├── beeper@1.1.1 </tspan>
<tspan x="10" y="1242">  │ ├─┬ chalk@1.1.3 </tspan>
<tspan x="10" y="1258">  │ │ ├── ansi-styles@2.2.1 </tspan>
<tspan x="10" y="1274">  │ │ ├── escape-string-regexp@1.0.5 </tspan>
<tspan x="10" y="1290">  │ │ ├─┬ has-ansi@2.0.0 </tspan>
<tspan x="10" y="1306">  │ │ │ └── ansi-regex@2.1.1 </tspan>
<tspan x="10" y="1322">  │ │ ├── strip-ansi@3.0.1 </tspan>
<tspan x="10" y="1338">  │ │ └── supports-color@2.0.0 </tspan>
<tspan x="10" y="1354">  │ ├── dateformat@2.0.0 </tspan>
<tspan x="10" y="1370">  │ ├─┬ fancy-log@1.3.0 </tspan>
<tspan x="10" y="1386">  │ │ └── time-stamp@1.0.1 </tspan>
<tspan x="10" y="1402">  │ ├─┬ gulplog@1.0.0 </tspan>
<tspan x="10" y="1418">  │ │ └── glogg@1.0.0 </tspan>
<tspan x="10" y="1434">  │ ├─┬ has-gulplog@0.1.0 </tspan>
<tspan x="10" y="1450">  │ │ └── sparkles@1.0.0 </tspan>
<tspan x="10" y="1466">  │ ├── lodash._reescape@3.0.0 </tspan>
<tspan x="10" y="1482">  │ ├── lodash._reevaluate@3.0.0 </tspan>
<tspan x="10" y="1498">  │ ├── lodash._reinterpolate@3.0.0 </tspan>
<tspan x="10" y="1514">  │ ├─┬ lodash.template@3.6.2 </tspan>
<tspan x="10" y="1530">  │ │ ├── lodash._basecopy@3.0.1 </tspan>
<tspan x="10" y="1546">  │ │ ├── lodash._basetostring@3.0.1 </tspan>
<tspan x="10" y="1562">  │ │ ├── lodash._basevalues@3.0.0 </tspan>
<tspan x="10" y="1578">  │ │ ├── lodash._isiterateecall@3.0.9 </tspan>
<tspan x="10" y="1594">  │ │ ├─┬ lodash.escape@3.2.0 </tspan>
<tspan x="10" y="1610">  │ │ │ └── lodash._root@3.0.1 </tspan>
<tspan x="10" y="1626">  │ │ ├─┬ lodash.keys@3.1.2 </tspan>
<tspan x="10" y="1642">  │ │ │ ├── lodash._getnative@3.9.1 </tspan>
<tspan x="10" y="1658">  │ │ │ ├── lodash.isarguments@3.1.0 </tspan>
<tspan x="10" y="1674">  │ │ │ └── lodash.isarray@3.0.4 </tspan>
<tspan x="10" y="1690">  │ │ ├── lodash.restparam@3.6.1 </tspan>
<tspan x="10" y="1706">  │ │ └── lodash.templatesettings@3.1.1 </tspan>
<tspan x="10" y="1722">  │ ├── minimist@1.2.0 </tspan>
<tspan x="10" y="1738">  │ ├─┬ multipipe@0.1.2 </tspan>
<tspan x="10" y="1754">  │ │ └─┬ duplexer2@0.0.2 </tspan>
<tspan x="10" y="1770">  │ │   └─┬ readable-stream@1.1.14 </tspan>
<tspan x="10" y="1786">  │ │     ├── isarray@0.0.1 </tspan>
<tspan x="10" y="1802">  │ │     └── string_decoder@0.10.31 </tspan>
<tspan x="10" y="1818">  │ ├── object-assign@3.0.0 </tspan>
<tspan x="10" y="1834">  │ ├── replace-ext@0.0.1 </tspan>
<tspan x="10" y="1850">  │ └─┬ vinyl@0.5.3 </tspan>
<tspan x="10" y="1866">  │   ├── clone@1.0.2 </tspan>
<tspan x="10" y="1882">  │   └── clone-stats@0.0.1 </tspan>
<tspan x="10" y="1898">  ├── lodash@4.17.4 </tspan>
<tspan x="10" y="1914">  └─┬ through2@2.0.3 </tspan>
<tspan x="10" y="1930">    ├─┬ readable-stream@2.2.9 </tspan>
<tspan x="10" y="1946">    │ ├── buffer-shims@1.0.0 </tspan>
<tspan x="10" y="1962">    │ ├── core-util-is@1.0.2 </tspan>
<tspan x="10" y="1978">    │ ├── isarray@1.0.0 </tspan>
<tspan x="10" y="1994">    │ ├── process-nextick-args@1.0.7 </tspan>
<tspan x="10" y="2010">    │ ├── string_decoder@1.0.0 </tspan>
<tspan x="10" y="2026">    │ └── util-deprecate@1.0.2 </tspan>
<tspan x="10" y="2042">    └── xtend@4.0.1</tspan>
</text>
</svg>
